<svg version="1.1" id="Layer_1" xmlns="http://www.w3.org/2000/svg"
	xmlns:xlink="http://www.w3.org/1999/xlink" x="0px" y="0px"
	width="100%" viewBox="0 0 800 246" enable-background="new 0 0 800 246" xml:space="preserve">
<path fill="#FFFFFF" opacity="1.000000" stroke="none" 
	d="
M532.000000,247.000000 
	C354.708893,247.000000 177.917801,247.000000 1.063351,247.000000 
	C1.063351,165.061859 1.063351,83.123657 1.063351,1.092728 
	C267.666656,1.092728 534.333313,1.092728 800.967712,1.092728 
	C800.967712,83.082245 800.967712,165.041122 800.967712,247.000000 
	C711.456970,247.000000 621.978455,247.000000 532.000000,247.000000 
M429.717682,226.776459 
	C435.482513,233.205414 442.509399,237.534622 450.740601,240.239029 
	C468.941559,246.219086 487.391113,246.215088 505.914795,242.643372 
	C516.711914,240.561493 526.797546,236.279587 534.956482,228.715332 
	C546.027832,218.450958 551.088257,205.262665 551.156128,190.364960 
	C551.335327,151.047653 551.216858,111.728996 551.216858,72.410881 
	C551.216858,70.451279 551.216797,68.491669 551.216797,66.333191 
	C538.735840,66.333191 526.700134,66.333191 514.091431,66.333191 
	C514.091431,71.508217 514.091431,76.368141 514.091431,81.290024 
	C510.185333,77.590813 506.932709,73.834023 503.035126,70.948418 
	C492.127106,62.872684 479.317780,61.853088 466.546509,63.294632 
	C455.266052,64.567902 445.039734,69.082848 436.555817,77.256866 
	C425.255188,88.144669 419.004211,101.146774 417.291260,116.743248 
	C414.967621,137.900635 417.858765,157.274063 432.673065,173.897003 
	C447.006378,189.980270 474.755951,196.451843 493.842896,186.577072 
	C501.242096,182.749039 507.601868,176.911835 514.249084,172.123932 
	C514.249084,178.347153 514.763977,185.381516 514.122559,192.308807 
	C513.263977,201.581757 509.287994,209.125626 500.333435,213.592850 
	C491.091949,218.203247 481.565033,217.685791 471.919067,216.209229 
	C465.588593,215.240173 459.443604,212.400482 457.410339,206.332260 
	C454.993958,199.120667 450.597565,198.524200 444.401215,198.902527 
	C437.595886,199.318039 430.745605,198.997192 423.914917,198.997192 
	C421.832825,198.997192 419.750702,198.997192 417.196930,198.997192 
	C419.217865,209.609756 421.785645,219.001312 429.717682,226.776459 
M605.150696,143.384567 
	C604.534363,139.104462 607.632141,140.015564 609.958008,140.013855 
	C637.452454,139.993561 664.946899,140.000763 692.441345,140.000732 
	C694.209351,140.000732 695.977356,140.000732 698.539429,140.000732 
	C698.022644,130.285049 698.362366,121.094238 696.891602,112.202896 
	C693.644409,92.571693 683.324768,77.524002 664.933594,69.008614 
	C651.112000,62.608997 636.445679,61.470245 621.512451,64.018280 
	C601.792297,67.383102 586.131348,77.162918 576.357910,94.803513 
	C566.924561,111.830261 565.125549,130.139328 569.069824,149.215179 
	C573.808411,172.132843 587.074158,187.461472 608.967102,195.345352 
	C624.561890,200.961197 640.630493,201.069153 656.566589,197.632843 
	C670.607178,194.605270 683.226624,188.594803 691.052368,175.519135 
	C694.789490,169.274902 698.063599,162.876694 697.926025,155.001709 
	C686.862305,155.001709 676.377808,154.937973 665.896667,155.094147 
	C664.771790,155.110931 662.928711,156.200928 662.664612,157.142532 
	C659.810120,167.318970 652.121216,171.270554 642.680237,172.689941 
	C631.361267,174.391663 617.185486,171.508514 610.491028,159.398895 
	C607.938232,154.781067 606.894470,149.328995 605.150696,143.384567 
M341.316895,196.979187 
	C350.242218,194.117111 356.928131,188.215073 363.456116,179.787445 
	C363.456116,186.319946 363.456116,191.511307 363.456116,196.790802 
	C376.083588,196.790802 388.027893,196.790802 400.230164,196.790802 
	C400.230164,153.177811 400.230164,109.778145 400.230164,66.187286 
	C388.001312,66.187286 376.057098,66.187286 363.584595,66.187286 
	C363.584595,68.312820 363.584625,70.281754 363.584595,72.250687 
	C363.584503,96.571190 363.707306,120.892624 363.521515,145.211716 
	C363.450958,154.449524 359.941772,162.263702 351.505859,166.967697 
	C335.809601,175.720215 314.835602,170.366623 315.542969,146.351944 
	C316.273376,121.553215 315.705292,96.716248 315.705261,71.896011 
	C315.705261,70.105034 315.705261,68.314056 315.705261,66.324768 
	C303.135437,66.324768 291.092468,66.324768 278.748444,66.324768 
	C278.748444,82.625771 278.619171,98.600960 278.784149,114.573112 
	C278.955597,131.168671 279.028412,147.781494 279.902039,164.346802 
	C280.349731,172.835663 284.012695,180.728134 290.091339,186.765503 
	C304.525757,201.101929 321.967316,202.109894 341.316895,196.979187 
M209.482010,65.997864 
	C201.380280,65.997864 193.278549,65.997864 185.234161,65.997864 
	C185.234161,110.000839 185.234161,153.369003 185.234161,196.718170 
	C197.522812,196.718170 209.441223,196.718170 221.835175,196.718170 
	C221.835175,194.482880 221.810471,192.524200 221.838974,190.566299 
	C222.165344,168.144287 222.244598,145.714401 222.945541,123.304008 
	C223.270004,112.929810 232.009354,103.399948 242.467209,101.084969 
	C249.428421,99.544006 256.536163,98.664970 263.470337,97.507690 
	C263.470337,86.218941 263.470337,75.291420 263.470337,64.067078 
	C244.897659,63.510654 231.503738,71.556236 221.692596,86.848152 
	C221.692596,80.067604 221.692596,73.287064 221.692596,65.997864 
	C217.712097,65.997864 214.092285,65.997864 209.482010,65.997864 
M714.049377,183.489365 
	C714.049377,187.911118 714.049377,192.332870 714.049377,196.763123 
	C726.695679,196.763123 738.622314,196.763123 751.027344,196.763123 
	C751.027344,194.748795 751.027344,192.963699 751.027344,191.178604 
	C751.027405,170.529343 750.646606,149.870560 751.162476,129.234192 
	C751.501465,115.675751 757.292236,104.403458 773.300232,100.951614 
	C779.757080,99.559311 786.306396,98.595840 792.764771,97.445900 
	C792.764771,86.314789 792.764771,75.382225 792.764771,64.004524 
	C784.088684,63.842983 776.193909,65.356438 768.716675,69.599960 
	C761.240662,73.842758 756.132507,80.230537 750.926514,88.135277 
	C750.926514,80.176132 750.926514,73.291290 750.926514,66.334671 
	C738.451538,66.334671 726.409180,66.334671 714.049377,66.334671 
	C714.049377,105.276756 714.049377,143.885101 714.049377,183.489365 
M115.971260,24.432487 
	C108.335739,33.467442 100.649208,42.459911 93.077744,51.548229 
	C83.846214,62.629166 74.716171,73.794617 65.532791,84.915718 
	C60.774837,90.677620 55.996502,96.422691 50.550602,102.991714 
	C68.748558,102.991714 85.823608,103.036339 102.897194,102.898636 
	C104.131973,102.888680 105.666557,101.815117 106.537086,100.790367 
	C115.251907,90.531616 123.882210,80.200600 132.485580,69.847778 
	C142.027161,58.366005 151.527863,46.850185 161.022278,35.329338 
	C165.557007,29.826717 170.036057,24.278208 175.152130,17.999680 
	C158.729309,17.999680 143.441818,18.282843 128.174728,17.848856 
	C122.697929,17.693172 118.949966,19.119024 115.971260,24.432487 
M112.450127,121.037750 
	C111.658112,120.187080 110.649590,119.454407 110.110771,118.465744 
	C107.487587,113.652496 103.812134,111.686546 98.072205,111.861252 
	C84.105972,112.286377 70.118065,111.991936 56.138912,112.010414 
	C54.593327,112.012459 53.047943,112.164146 50.931213,112.276855 
	C58.919361,121.730827 66.479660,130.572220 73.919945,139.513474 
	C81.568016,148.704422 89.069153,158.017487 96.690048,167.231262 
	C103.485466,175.447006 110.387154,183.574875 117.178200,191.794205 
	C119.637955,194.771286 122.391273,196.236420 126.520744,196.110992 
	C137.327988,195.782715 148.151825,196.000305 158.969040,196.000305 
	C164.026062,196.000305 169.083069,196.000305 174.983124,196.000305 
	C153.862793,170.647568 133.411942,146.098450 112.450127,121.037750 
M67.605339,65.061501 
	C69.388863,63.206863 71.331322,61.479084 72.929596,59.476589 
	C81.984695,48.131317 82.620934,31.034353 74.042007,18.695036 
	C64.207764,4.550151 51.382854,1.626911 36.925648,4.739632 
	C14.534721,9.560527 3.666007,34.790215 14.695887,55.280453 
	C24.845409,74.135246 51.735432,79.414360 67.605339,65.061501 
M33.451523,122.022476 
	C31.068184,124.742271 28.907246,127.709198 26.238037,130.111343 
	C23.644623,132.445312 22.871071,134.965988 22.920513,138.370728 
	C23.108906,151.343674 22.996525,164.320969 22.996525,177.296646 
	C22.996525,183.731644 22.996523,190.166656 22.996523,196.677887 
	C36.236916,196.677887 48.936573,196.677887 61.963623,196.677887 
	C61.963623,176.755219 61.973827,157.152939 61.931477,137.550766 
	C61.929497,136.635147 61.718288,135.505585 61.166145,134.838486 
	C55.098690,127.507591 48.944118,120.248810 42.587078,112.702049 
	C39.530537,115.831009 36.749641,118.677780 33.451523,122.022476 
z"/>
<path fill="#FD5B00" opacity="1.000000" stroke="none" 
	d="
M429.467834,226.525970 
	C421.785645,219.001312 419.217865,209.609756 417.196930,198.997192 
	C419.750702,198.997192 421.832825,198.997192 423.914917,198.997192 
	C430.745605,198.997192 437.595886,199.318039 444.401215,198.902527 
	C450.597565,198.524200 454.993958,199.120667 457.410339,206.332260 
	C459.443604,212.400482 465.588593,215.240173 471.919067,216.209229 
	C481.565033,217.685791 491.091949,218.203247 500.333435,213.592850 
	C509.287994,209.125626 513.263977,201.581757 514.122559,192.308807 
	C514.763977,185.381516 514.249084,178.347153 514.249084,172.123932 
	C507.601868,176.911835 501.242096,182.749039 493.842896,186.577072 
	C474.755951,196.451843 447.006378,189.980270 432.673065,173.897003 
	C417.858765,157.274063 414.967621,137.900635 417.291260,116.743248 
	C419.004211,101.146774 425.255188,88.144669 436.555817,77.256866 
	C445.039734,69.082848 455.266052,64.567902 466.546509,63.294632 
	C479.317780,61.853088 492.127106,62.872684 503.035126,70.948418 
	C506.932709,73.834023 510.185333,77.590813 514.091431,81.290024 
	C514.091431,76.368141 514.091431,71.508217 514.091431,66.333191 
	C526.700134,66.333191 538.735840,66.333191 551.216797,66.333191 
	C551.216797,68.491669 551.216858,70.451279 551.216858,72.410881 
	C551.216858,111.728996 551.335327,151.047653 551.156128,190.364960 
	C551.088257,205.262665 546.027832,218.450958 534.956482,228.715332 
	C526.797546,236.279587 516.711914,240.561493 505.914795,242.643372 
	C487.391113,246.215088 468.941559,246.219086 450.740601,240.239029 
	C442.509399,237.534622 435.482513,233.205414 429.467834,226.525970 
M510.175781,149.410614 
	C515.504822,140.646591 516.105103,130.902451 515.083313,121.175247 
	C514.500366,115.625504 513.008545,109.808334 510.420624,104.906227 
	C504.701721,94.073151 489.728607,88.276321 476.028198,92.608643 
	C466.366760,95.663750 460.006561,101.603897 456.712799,111.206291 
	C453.442566,120.740013 453.250977,130.488663 455.624573,139.962402 
	C459.076141,153.738678 469.406769,163.016479 484.524078,162.999649 
	C495.148438,162.987808 503.569489,158.683823 510.175781,149.410614 
z"/>
<path fill="#FE5B00" opacity="1.000000" stroke="none" 
	d="
M605.156860,143.820847 
	C606.894470,149.328995 607.938232,154.781067 610.491028,159.398895 
	C617.185486,171.508514 631.361267,174.391663 642.680237,172.689941 
	C652.121216,171.270554 659.810120,167.318970 662.664612,157.142532 
	C662.928711,156.200928 664.771790,155.110931 665.896667,155.094147 
	C676.377808,154.937973 686.862305,155.001709 697.926025,155.001709 
	C698.063599,162.876694 694.789490,169.274902 691.052368,175.519135 
	C683.226624,188.594803 670.607178,194.605270 656.566589,197.632843 
	C640.630493,201.069153 624.561890,200.961197 608.967102,195.345352 
	C587.074158,187.461472 573.808411,172.132843 569.069824,149.215179 
	C565.125549,130.139328 566.924561,111.830261 576.357910,94.803513 
	C586.131348,77.162918 601.792297,67.383102 621.512451,64.018280 
	C636.445679,61.470245 651.112000,62.608997 664.933594,69.008614 
	C683.324768,77.524002 693.644409,92.571693 696.891602,112.202896 
	C698.362366,121.094238 698.022644,130.285049 698.539429,140.000732 
	C695.977356,140.000732 694.209351,140.000732 692.441345,140.000732 
	C664.946899,140.000763 637.452454,139.993561 609.958008,140.013855 
	C607.632141,140.015564 604.534363,139.104462 605.156860,143.820847 
M624.494019,90.912857 
	C612.113281,95.064445 608.059326,105.214340 605.641846,116.625717 
	C624.572266,116.625717 643.243958,116.625717 661.892090,116.625717 
	C662.421021,105.870659 656.179749,94.632652 647.794861,91.324814 
	C640.405396,88.409668 632.827271,87.837799 624.494019,90.912857 
z"/>
<path fill="#FC5A00" opacity="1.000000" stroke="none" 
	d="
M340.913483,197.022400 
	C321.967316,202.109894 304.525757,201.101929 290.091339,186.765503 
	C284.012695,180.728134 280.349731,172.835663 279.902039,164.346802 
	C279.028412,147.781494 278.955597,131.168671 278.784149,114.573112 
	C278.619171,98.600960 278.748444,82.625771 278.748444,66.324768 
	C291.092468,66.324768 303.135437,66.324768 315.705261,66.324768 
	C315.705261,68.314056 315.705261,70.105034 315.705261,71.896011 
	C315.705292,96.716248 316.273376,121.553215 315.542969,146.351944 
	C314.835602,170.366623 335.809601,175.720215 351.505859,166.967697 
	C359.941772,162.263702 363.450958,154.449524 363.521515,145.211716 
	C363.707306,120.892624 363.584503,96.571190 363.584595,72.250687 
	C363.584625,70.281754 363.584595,68.312820 363.584595,66.187286 
	C376.057098,66.187286 388.001312,66.187286 400.230164,66.187286 
	C400.230164,109.778145 400.230164,153.177811 400.230164,196.790802 
	C388.027893,196.790802 376.083588,196.790802 363.456116,196.790802 
	C363.456116,191.511307 363.456116,186.319946 363.456116,179.787445 
	C356.928131,188.215073 350.242218,194.117111 340.913483,197.022400 
z"/>
<path fill="#FD5B00" opacity="1.000000" stroke="none" 
	d="
M209.977249,65.997864 
	C214.092285,65.997864 217.712097,65.997864 221.692596,65.997864 
	C221.692596,73.287064 221.692596,80.067604 221.692596,86.848152 
	C231.503738,71.556236 244.897659,63.510654 263.470337,64.067078 
	C263.470337,75.291420 263.470337,86.218941 263.470337,97.507690 
	C256.536163,98.664970 249.428421,99.544006 242.467209,101.084969 
	C232.009354,103.399948 223.270004,112.929810 222.945541,123.304008 
	C222.244598,145.714401 222.165344,168.144287 221.838974,190.566299 
	C221.810471,192.524200 221.835175,194.482880 221.835175,196.718170 
	C209.441223,196.718170 197.522812,196.718170 185.234161,196.718170 
	C185.234161,153.369003 185.234161,110.000839 185.234161,65.997864 
	C193.278549,65.997864 201.380280,65.997864 209.977249,65.997864 
z"/>
<path fill="#FE5B00" opacity="1.000000" stroke="none" 
	d="
M714.049377,182.991394 
	C714.049377,143.885101 714.049377,105.276756 714.049377,66.334671 
	C726.409180,66.334671 738.451538,66.334671 750.926514,66.334671 
	C750.926514,73.291290 750.926514,80.176132 750.926514,88.135277 
	C756.132507,80.230537 761.240662,73.842758 768.716675,69.599960 
	C776.193909,65.356438 784.088684,63.842983 792.764771,64.004524 
	C792.764771,75.382225 792.764771,86.314789 792.764771,97.445900 
	C786.306396,98.595840 779.757080,99.559311 773.300232,100.951614 
	C757.292236,104.403458 751.501465,115.675751 751.162476,129.234192 
	C750.646606,149.870560 751.027405,170.529343 751.027344,191.178604 
	C751.027344,192.963699 751.027344,194.748795 751.027344,196.763123 
	C738.622314,196.763123 726.695679,196.763123 714.049377,196.763123 
	C714.049377,192.332870 714.049377,187.911118 714.049377,182.991394 
z"/>
<path fill="#FE5B00" opacity="1.000000" stroke="none" 
	d="
M116.232162,24.177994 
	C118.949966,19.119024 122.697929,17.693172 128.174728,17.848856 
	C143.441818,18.282843 158.729309,17.999680 175.152130,17.999680 
	C170.036057,24.278208 165.557007,29.826717 161.022278,35.329338 
	C151.527863,46.850185 142.027161,58.366005 132.485580,69.847778 
	C123.882210,80.200600 115.251907,90.531616 106.537086,100.790367 
	C105.666557,101.815117 104.131973,102.888680 102.897194,102.898636 
	C85.823608,103.036339 68.748558,102.991714 50.550602,102.991714 
	C55.996502,96.422691 60.774837,90.677620 65.532791,84.915718 
	C74.716171,73.794617 83.846214,62.629166 93.077744,51.548229 
	C100.649208,42.459911 108.335739,33.467442 116.232162,24.177994 
z"/>
<path fill="#FE5B00" opacity="1.000000" stroke="none" 
	d="
M112.705597,121.293541 
	C133.411942,146.098450 153.862793,170.647568 174.983124,196.000305 
	C169.083069,196.000305 164.026062,196.000305 158.969040,196.000305 
	C148.151825,196.000305 137.327988,195.782715 126.520744,196.110992 
	C122.391273,196.236420 119.637955,194.771286 117.178200,191.794205 
	C110.387154,183.574875 103.485466,175.447006 96.690048,167.231262 
	C89.069153,158.017487 81.568016,148.704422 73.919945,139.513474 
	C66.479660,130.572220 58.919361,121.730827 50.931213,112.276855 
	C53.047943,112.164146 54.593327,112.012459 56.138912,112.010414 
	C70.118065,111.991936 84.105972,112.286377 98.072205,111.861252 
	C103.812134,111.686546 107.487587,113.652496 110.110771,118.465744 
	C110.649590,119.454407 111.658112,120.187080 112.705597,121.293541 
z"/>
<path fill="#FF5B00" opacity="1.000000" stroke="none" 
	d="
M67.305878,65.269066 
	C51.735432,79.414360 24.845409,74.135246 14.695887,55.280453 
	C3.666007,34.790215 14.534721,9.560527 36.925648,4.739632 
	C51.382854,1.626911 64.207764,4.550151 74.042007,18.695036 
	C82.620934,31.034353 81.984695,48.131317 72.929596,59.476589 
	C71.331322,61.479084 69.388863,63.206863 67.305878,65.269066 
M41.063122,37.676346 
	C42.545315,39.362587 44.027508,41.048828 45.509701,42.735069 
	C46.654411,41.727180 48.684719,40.760643 48.734169,39.701611 
	C48.806507,38.152309 47.844666,36.091202 46.634998,35.042530 
	C44.155380,32.892925 42.658607,34.928318 41.063122,37.676346 
z"/>
<path fill="#FF5B00" opacity="1.000000" stroke="none" 
	d="
M33.710136,121.773514 
	C36.749641,118.677780 39.530537,115.831009 42.587078,112.702049 
	C48.944118,120.248810 55.098690,127.507591 61.166145,134.838486 
	C61.718288,135.505585 61.929497,136.635147 61.931477,137.550766 
	C61.973827,157.152939 61.963623,176.755219 61.963623,196.677887 
	C48.936573,196.677887 36.236916,196.677887 22.996523,196.677887 
	C22.996523,190.166656 22.996525,183.731644 22.996525,177.296646 
	C22.996525,164.320969 23.108906,151.343674 22.920513,138.370728 
	C22.871071,134.965988 23.644623,132.445312 26.238037,130.111343 
	C28.907246,127.709198 31.068184,124.742271 33.710136,121.773514 
z"/>
<path fill="#FFFFFF" opacity="1.000000" stroke="none" 
	d="
M509.964569,149.720642 
	C503.569489,158.683823 495.148438,162.987808 484.524078,162.999649 
	C469.406769,163.016479 459.076141,153.738678 455.624573,139.962402 
	C453.250977,130.488663 453.442566,120.740013 456.712799,111.206291 
	C460.006561,101.603897 466.366760,95.663750 476.028198,92.608643 
	C489.728607,88.276321 504.701721,94.073151 510.420624,104.906227 
	C513.008545,109.808334 514.500366,115.625504 515.083313,121.175247 
	C516.105103,130.902451 515.504822,140.646591 509.964569,149.720642 
z"/>
<path fill="#FFFFFF" opacity="1.000000" stroke="none" 
	d="
M624.836426,90.691925 
	C632.827271,87.837799 640.405396,88.409668 647.794861,91.324814 
	C656.179749,94.632652 662.421021,105.870659 661.892090,116.625717 
	C643.243958,116.625717 624.572266,116.625717 605.641846,116.625717 
	C608.059326,105.214340 612.113281,95.064445 624.836426,90.691925 
z"/>
<path fill="#FFFFFF" opacity="1.000000" stroke="none" 
	d="
M41.260605,37.348274 
	C42.658607,34.928318 44.155380,32.892925 46.634998,35.042530 
	C47.844666,36.091202 48.806507,38.152309 48.734169,39.701611 
	C48.684719,40.760643 46.654411,41.727180 45.509701,42.735069 
	C44.027508,41.048828 42.545315,39.362587 41.260605,37.348274 
z"/>
</svg>