<svg version="1.1" id="Layer_1" xmlns="http://www.w3.org/2000/svg" xmlns:xlink="http://www.w3.org/1999/xlink" x="0px" y="0px"
	 width="100%" viewBox="0 0 570 570" enable-background="new 0 0 570 570" xml:space="preserve">
<path fill="#7041C3" opacity="1.000000" stroke="none" 
	d="
M252.000000,0.999997 
	C274.354218,1.000000 296.708466,1.000000 319.366394,1.401032 
	C320.345276,2.191899 320.981842,2.817750 321.701599,2.935682 
	C330.577026,4.389954 339.591888,5.225037 348.326843,7.264629 
	C384.170502,15.634032 417.376495,30.015625 447.862152,50.861599 
	C469.302887,65.522667 488.169250,82.930122 504.883423,102.595795 
	C521.251892,121.854721 534.540161,143.172256 545.175476,166.230011 
	C557.467285,192.879166 565.380981,220.638062 569.079895,249.685318 
	C569.186768,250.524765 570.336487,251.231430 571.000000,252.000000 
	C571.000000,274.354218 571.000000,296.708466 570.601074,319.357300 
	C569.811157,320.327087 569.182983,320.963379 569.065186,321.683228 
	C567.611938,330.560577 566.781616,339.578308 564.739380,348.314056 
	C556.360352,384.157379 541.991333,417.372925 521.138184,447.859741 
	C506.474091,469.298309 489.071655,488.169281 469.404205,504.882751 
	C450.143860,521.250183 428.826599,534.539062 405.769226,545.175293 
	C379.120636,557.468079 351.361328,565.380127 322.314362,569.079712 
	C321.475006,569.186584 320.768463,570.336487 320.000000,571.000000 
	C297.645782,571.000000 275.291534,571.000000 252.642807,570.601074 
	C251.673218,569.811157 251.036957,569.182983 250.317154,569.065186 
	C241.439728,567.612000 232.421844,566.781921 223.686020,564.739563 
	C187.842514,556.359741 154.626740,541.990112 124.138947,521.137878 
	C102.699753,506.474426 83.830544,489.070068 67.116859,469.403229 
	C50.749149,450.143494 37.460308,428.826324 26.824558,405.768799 
	C14.532110,379.119720 6.620033,351.360168 2.920231,322.313049 
	C2.813373,321.474091 1.663534,320.768036 1.000002,320.000000 
	C1.000000,297.645782 1.000000,275.291534 1.398889,252.642792 
	C3.195482,245.208084 4.638365,238.076401 5.982480,230.926147 
	C10.135554,208.833221 16.885744,187.551773 26.414776,167.211288 
	C38.153130,142.154907 52.650646,118.905945 71.161270,98.134872 
	C84.202393,83.501213 98.206444,69.965141 113.759331,58.152172 
	C130.174576,45.684219 147.865265,35.248344 166.668503,26.592791 
	C193.159927,14.398205 220.788177,6.582092 249.666229,2.920310 
	C250.511734,2.813100 251.225052,1.663547 252.000000,0.999997 
M395.058289,251.423737 
	C394.628723,243.773499 394.559937,236.081818 393.687317,228.482452 
	C392.284943,216.269470 391.899811,203.643204 388.343262,192.031250 
	C378.800049,160.872910 355.528473,143.162933 325.204224,135.285614 
	C292.223267,126.718185 259.288818,130.037094 227.627625,142.205811 
	C207.408630,149.976791 193.540237,164.894760 185.671295,185.267212 
	C180.813492,197.843933 178.387482,210.908356 178.103149,224.271988 
	C177.500748,252.585083 176.897903,280.911621 177.155258,309.224823 
	C177.325958,328.003326 177.510254,346.993195 180.325378,365.487030 
	C184.642944,393.851166 198.999542,416.844513 226.105789,428.612671 
	C264.308899,445.198547 303.480133,445.859589 342.167664,429.895416 
	C371.340790,417.857361 388.679504,395.755341 391.793610,364.072327 
	C395.441956,326.953064 398.570282,289.745453 395.058289,251.423737 
z"/>
<path fill="#FFFF" opacity="1.000000" stroke="none" 
	d="
M251.531342,0.999997 
	C251.225052,1.663547 250.511734,2.813100 249.666229,2.920310 
	C220.788177,6.582092 193.159927,14.398205 166.668503,26.592791 
	C147.865265,35.248344 130.174576,45.684219 113.759331,58.152172 
	C98.206444,69.965141 84.202393,83.501213 71.161270,98.134872 
	C52.650646,118.905945 38.153130,142.154907 26.414776,167.211288 
	C16.885744,187.551773 10.135554,208.833221 5.982480,230.926147 
	C4.638365,238.076401 3.195482,245.208084 1.398889,252.174133 
	C1.000000,168.406296 1.000000,84.812584 1.000000,1.000000 
	C84.354103,1.000000 167.708389,1.000000 251.531342,0.999997 
z"/>
<path fill="#FFFF" opacity="1.000000" stroke="none" 
	d="
M571.000000,251.531342 
	C570.336487,251.231430 569.186768,250.524765 569.079895,249.685318 
	C565.380981,220.638062 557.467285,192.879166 545.175476,166.230011 
	C534.540161,143.172256 521.251892,121.854721 504.883423,102.595795 
	C488.169250,82.930122 469.302887,65.522667 447.862152,50.861599 
	C417.376495,30.015625 384.170502,15.634032 348.326843,7.264629 
	C339.591888,5.225037 330.577026,4.389954 321.701599,2.935682 
	C320.981842,2.817750 320.345276,2.191899 319.835022,1.401032 
	C403.593719,1.000000 487.187408,1.000000 571.000000,1.000000 
	C571.000000,84.354103 571.000000,167.708389 571.000000,251.531342 
z"/>
<path fill="#FFFF" opacity="1.000000" stroke="none" 
	d="
M1.000002,320.468658 
	C1.663534,320.768036 2.813373,321.474091 2.920231,322.313049 
	C6.620033,351.360168 14.532110,379.119720 26.824558,405.768799 
	C37.460308,428.826324 50.749149,450.143494 67.116859,469.403229 
	C83.830544,489.070068 102.699753,506.474426 124.138947,521.137878 
	C154.626740,541.990112 187.842514,556.359741 223.686020,564.739563 
	C232.421844,566.781921 241.439728,567.612000 250.317154,569.065186 
	C251.036957,569.182983 251.673218,569.811157 252.174149,570.601074 
	C168.406296,571.000000 84.812584,571.000000 1.000000,571.000000 
	C1.000000,487.645905 1.000000,404.291595 1.000002,320.468658 
z"/>
<path fill="#FFFF" opacity="1.000000" stroke="none" 
	d="
M320.468658,571.000000 
	C320.768463,570.336487 321.475006,569.186584 322.314362,569.079712 
	C351.361328,565.380127 379.120636,557.468079 405.769226,545.175293 
	C428.826599,534.539062 450.143860,521.250183 469.404205,504.882751 
	C489.071655,488.169281 506.474091,469.298309 521.138184,447.859741 
	C541.991333,417.372925 556.360352,384.157379 564.739380,348.314056 
	C566.781616,339.578308 567.611938,330.560577 569.065186,321.683228 
	C569.182983,320.963379 569.811157,320.327087 570.601074,319.825989 
	C571.000000,403.593719 571.000000,487.187408 571.000000,571.000000 
	C487.645905,571.000000 404.291595,571.000000 320.468658,571.000000 
z"/>
<path fill="#FEFEFF" opacity="1.000000" stroke="none" 
	d="
M395.066040,251.903625 
	C398.570282,289.745453 395.441956,326.953064 391.793610,364.072327 
	C388.679504,395.755341 371.340790,417.857361 342.167664,429.895416 
	C303.480133,445.859589 264.308899,445.198547 226.105789,428.612671 
	C198.999542,416.844513 184.642944,393.851166 180.325378,365.487030 
	C177.510254,346.993195 177.325958,328.003326 177.155258,309.224823 
	C176.897903,280.911621 177.500748,252.585083 178.103149,224.271988 
	C178.387482,210.908356 180.813492,197.843933 185.671295,185.267212 
	C193.540237,164.894760 207.408630,149.976791 227.627625,142.205811 
	C259.288818,130.037094 292.223267,126.718185 325.204224,135.285614 
	C355.528473,143.162933 378.800049,160.872910 388.343262,192.031250 
	C391.899811,203.643204 392.284943,216.269470 393.687317,228.482452 
	C394.559937,236.081818 394.628723,243.773499 395.066040,251.903625 
M246.091492,354.104889 
	C250.350540,367.463409 259.216034,376.369812 273.027985,378.554688 
	C281.604370,379.911346 290.690308,379.759949 299.330231,378.627563 
	C314.951416,376.580139 323.386475,367.263458 324.377716,351.062836 
	C326.983459,308.475952 326.863251,265.846893 324.682098,223.243546 
	C324.453674,218.781586 322.690643,214.061966 320.494171,210.096283 
	C311.844604,194.479614 293.221252,187.546661 274.200165,192.357422 
	C255.884277,196.989822 245.180511,209.582581 244.988358,228.498901 
	C244.595901,267.133514 244.754715,305.774048 244.779755,344.412048 
	C244.781677,347.372345 245.518570,350.332184 246.091492,354.104889 
z"/>
<path fill="#7042C3" opacity="1.000000" stroke="none" 
	d="
M246.002655,353.698547 
	C245.518570,350.332184 244.781677,347.372345 244.779755,344.412048 
	C244.754715,305.774048 244.595901,267.133514 244.988358,228.498901 
	C245.180511,209.582581 255.884277,196.989822 274.200165,192.357422 
	C293.221252,187.546661 311.844604,194.479614 320.494171,210.096283 
	C322.690643,214.061966 324.453674,218.781586 324.682098,223.243546 
	C326.863251,265.846893 326.983459,308.475952 324.377716,351.062836 
	C323.386475,367.263458 314.951416,376.580139 299.330231,378.627563 
	C290.690308,379.759949 281.604370,379.911346 273.027985,378.554688 
	C259.216034,376.369812 250.350540,367.463409 246.002655,353.698547 
z"/>
</svg>