<svg version="1.1" id="Layer_1" xmlns="http://www.w3.org/2000/svg" xmlns:xlink="http://www.w3.org/1999/xlink" x="0px" y="0px"
	 width="100%" viewBox="0 0 138 172" enable-background="new 0 0 138 172" xml:space="preserve">
<path fill="#225F9A" opacity="1.000000" stroke="none" 
	d="
M1.000000,85.000000 
	C1.000000,79.977905 1.000000,74.955818 1.358525,69.318291 
	C1.993120,67.448494 2.225736,66.182709 2.552036,64.941551 
	C5.523380,53.639435 13.800018,46.280369 22.053659,39.244545 
	C22.404224,40.942242 22.730350,42.235275 22.940561,43.546890 
	C24.034595,50.373104 25.916119,51.485016 32.186810,48.966640 
	C36.636673,47.179539 38.548962,48.005077 40.014229,52.713055 
	C40.647717,54.748486 40.758671,56.946545 40.966293,59.375862 
	C38.117855,62.386948 35.340279,65.027145 32.717182,67.812813 
	C27.579596,73.268822 27.673061,81.290512 32.836563,86.342674 
	C38.105778,91.498260 45.027218,91.249634 50.740105,85.772888 
	C57.437580,79.352249 64.039154,72.821732 70.935104,66.619942 
	C86.865417,52.293201 110.066505,52.385910 126.200401,66.640007 
	C132.778625,72.451775 135.813568,80.235252 139.000000,88.000000 
	C139.000000,93.354927 139.000000,98.709862 138.640411,104.682434 
	C137.997528,106.564026 137.735397,107.833153 137.427658,109.091125 
	C134.511490,121.011856 125.340843,128.220764 116.918289,135.770508 
	C115.629784,134.903214 114.535706,134.198303 113.338120,133.862183 
	C106.707443,132.001083 105.865135,130.338928 108.934036,124.110901 
	C110.599083,120.731865 109.813339,118.239288 106.490105,116.877304 
	C104.094887,115.895676 101.434975,115.559921 99.032196,114.629807 
	C101.879501,111.616585 104.657257,108.975121 107.281189,106.188797 
	C112.421700,100.730171 112.502541,92.511658 107.111519,87.710785 
	C101.971405,83.133369 95.410225,82.159012 89.222221,88.229027 
	C82.716911,94.610275 75.824265,100.605309 69.460175,107.120102 
	C55.233467,121.683662 28.728462,121.450920 13.449663,107.047478 
	C6.932885,100.904053 3.722441,93.152176 1.000000,85.000000 
z"/>
<path fill="#FFFFFF" opacity="1.000000" stroke="none" 
	d="
M139.000000,87.531342 
	C135.813568,80.235252 132.778625,72.451775 126.200401,66.640007 
	C110.066505,52.385910 86.865417,52.293201 70.935104,66.619942 
	C64.039154,72.821732 57.437580,79.352249 50.740105,85.772888 
	C45.027218,91.249634 38.105778,91.498260 32.836563,86.342674 
	C27.673061,81.290512 27.579596,73.268822 32.717182,67.812813 
	C35.340279,65.027145 38.117855,62.386948 41.273712,59.240845 
	C43.257244,57.599197 44.912323,56.521927 46.309086,55.176479 
	C57.159496,44.724754 67.910805,34.169617 78.813942,23.773554 
	C81.261032,21.440266 81.558319,19.841284 78.952377,17.334345 
	C73.470367,12.060606 68.298920,6.464056 63.000000,1.000000 
	C88.265160,1.000000 113.530312,1.000000 139.000000,1.000000 
	C139.000000,29.687237 139.000000,58.374962 139.000000,87.531342 
z"/>
<path fill="#FFFFFF" opacity="1.000000" stroke="none" 
	d="
M1.000000,85.468658 
	C3.722441,93.152176 6.932885,100.904053 13.449663,107.047478 
	C28.728462,121.450920 55.233467,121.683662 69.460175,107.120102 
	C75.824265,100.605309 82.716911,94.610275 89.222221,88.229027 
	C95.410225,82.159012 101.971405,83.133369 107.111519,87.710785 
	C112.502541,92.511658 112.421700,100.730171 107.281189,106.188797 
	C104.657257,108.975121 101.879501,111.616585 98.721977,114.762100 
	C94.739189,118.398575 91.090309,121.479111 87.694916,124.817474 
	C79.167305,133.201859 71.127930,142.133331 62.117882,149.952530 
	C58.326836,153.242523 58.783398,154.484543 61.755829,157.362457 
	C66.983521,162.423859 71.933647,167.771957 77.000000,173.000000 
	C51.734421,173.000000 26.468842,173.000000 1.000000,173.000000 
	C1.000000,143.979416 1.000000,114.958366 1.000000,85.468658 
z"/>
<path fill="#FFFFFF" opacity="1.000000" stroke="none" 
	d="
M21.975746,38.848450 
	C13.800018,46.280369 5.523380,53.639435 2.552036,64.941551 
	C2.225736,66.182709 1.993120,67.448494 1.358525,68.851425 
	C1.000000,46.411079 1.000000,23.822157 1.000000,1.000000 
	C20.686947,1.000000 40.374817,1.000000 60.431839,1.330514 
	C47.859249,14.056835 34.917496,26.452642 21.975746,38.848450 
z"/>
<path fill="#FFFFFF" opacity="1.000000" stroke="none" 
	d="
M117.064941,136.103149 
	C125.340843,128.220764 134.511490,121.011856 137.427658,109.091125 
	C137.735397,107.833153 137.997528,106.564026 138.640411,105.150040 
	C139.000000,127.588310 139.000000,150.176620 139.000000,173.000000 
	C119.646408,173.000000 100.291862,173.000000 80.564240,172.677246 
	C92.482430,160.270706 104.773689,148.186920 117.064941,136.103149 
z"/>
<path fill="#1C81B9" opacity="1.000000" stroke="none" 
	d="
M116.918289,135.770508 
	C104.773689,148.186920 92.482430,160.270706 80.095581,172.677246 
	C79.250000,173.000000 78.500000,173.000000 77.375000,173.000000 
	C71.933647,167.771957 66.983521,162.423859 61.755829,157.362457 
	C58.783398,154.484543 58.326836,153.242523 62.117882,149.952530 
	C71.127930,142.133331 79.167305,133.201859 87.694916,124.817474 
	C91.090309,121.479111 94.739189,118.398575 98.582901,115.068375 
	C101.434975,115.559921 104.094887,115.895676 106.490105,116.877304 
	C109.813339,118.239288 110.599083,120.731865 108.934036,124.110901 
	C105.865135,130.338928 106.707443,132.001083 113.338120,133.862183 
	C114.535706,134.198303 115.629784,134.903214 116.918289,135.770508 
M96.024925,144.655045 
	C95.648407,141.281113 95.271896,137.907196 94.895378,134.533264 
	C93.731262,136.007675 93.814117,137.518173 93.555519,138.967743 
	C93.311501,140.335602 93.078156,142.001724 92.194321,142.904114 
	C89.423157,145.733444 86.330612,148.246140 83.402946,150.925598 
	C82.773071,151.502075 82.046211,152.204727 81.878830,152.962906 
	C81.785995,153.383453 82.904068,154.571701 83.221725,154.484680 
	C84.036148,154.261520 84.804741,153.611160 85.420349,152.967697 
	C87.996895,150.274658 90.510498,147.521393 93.047165,144.790192 
	C93.424622,144.991577 93.802078,145.192963 94.179527,145.394348 
	C93.832817,147.626022 93.486115,149.857697 93.102814,152.324905 
	C97.139137,151.271057 96.265663,148.277328 96.024925,144.655045 
M74.861664,142.349731 
	C73.078918,144.170776 71.296173,145.991821 69.513428,147.812851 
	C69.874580,148.176758 70.235741,148.540665 70.596893,148.904572 
	C76.251038,144.676575 79.772842,136.624969 89.156784,139.084427 
	C83.497169,136.320435 78.842400,136.741409 74.861664,142.349731 
M70.942749,154.305939 
	C70.644615,154.960083 70.346481,155.614243 69.506622,157.457016 
	C74.911278,153.010437 79.313812,149.468292 83.577354,145.766068 
	C84.041847,145.362732 83.704659,144.036179 83.739319,143.137817 
	C82.739403,143.324432 81.387161,143.161728 80.798180,143.755783 
	C77.571175,147.010529 74.531349,150.450882 70.942749,154.305939 
M85.711975,158.004684 
	C86.035378,158.548080 86.358780,159.091461 86.682182,159.634857 
	C89.194374,157.147995 91.706566,154.661133 94.218758,152.174271 
	C93.790825,151.743759 93.362892,151.313248 92.934967,150.882736 
	C90.680901,153.082535 88.426834,155.282333 85.711975,158.004684 
z"/>
<path fill="#1A80B8" opacity="1.000000" stroke="none" 
	d="
M22.053659,39.244545 
	C34.917496,26.452642 47.859249,14.056835 60.900497,1.330514 
	C61.444447,1.000000 61.888889,1.000000 62.666668,1.000000 
	C68.298920,6.464056 73.470367,12.060606 78.952377,17.334345 
	C81.558319,19.841284 81.261032,21.440266 78.813942,23.773554 
	C67.910805,34.169617 57.159496,44.724754 46.309086,55.176479 
	C44.912323,56.521927 43.257244,57.599197 41.414406,58.935715 
	C40.758671,56.946545 40.647717,54.748486 40.014229,52.713055 
	C38.548962,48.005077 36.636673,47.179539 32.186810,48.966640 
	C25.916119,51.485016 24.034595,50.373104 22.940561,43.546890 
	C22.730350,42.235275 22.404224,40.942242 22.053659,39.244545 
M59.686291,34.784477 
	C62.979977,32.119495 66.324158,29.512068 69.506287,26.719952 
	C69.925171,26.352407 69.515732,25.040836 69.489922,24.166487 
	C68.657974,24.343567 67.536263,24.238022 67.042168,24.744617 
	C64.295593,27.560694 61.701351,30.525345 58.778778,33.921604 
	C58.496826,34.297550 58.214870,34.673492 57.210625,35.421482 
	C55.596783,35.247570 53.982937,35.073654 51.747074,34.832706 
	C54.036129,32.355724 55.601810,30.661497 57.167492,28.967274 
	C56.867439,28.583239 56.567383,28.199205 56.267326,27.815172 
	C52.026711,30.228498 49.375336,36.607506 43.328075,33.218040 
	C48.436752,30.066547 47.055779,25.336166 46.616699,19.486809 
	C45.700111,21.231724 44.983814,21.944006 45.098442,22.477884 
	C46.245358,27.819721 43.223381,31.084023 39.568439,34.113918 
	C38.559708,34.950146 37.554119,35.878330 36.873486,36.968166 
	C36.670631,37.292976 37.577644,38.310928 38.084599,39.625267 
	C38.815022,40.018837 40.154560,40.804161 40.189228,40.750259 
	C43.226009,36.028458 47.661240,36.346443 52.431957,36.849548 
	C54.157200,37.031483 56.045815,35.664280 58.372417,34.552540 
	C58.598557,34.552357 58.824692,34.552170 59.686291,34.784477 
M57.286633,16.824356 
	C54.773022,19.191957 52.259415,21.559561 49.745804,23.927162 
	C50.317657,24.514151 50.889511,25.101137 51.461365,25.688124 
	C53.664112,23.475418 55.870159,21.265987 58.068695,19.049107 
	C60.359234,16.739447 62.642521,14.422598 64.928978,12.108893 
	C64.533104,11.701941 64.137238,11.294991 63.741364,10.888039 
	C61.758900,12.699422 59.776432,14.510806 57.286633,16.824356 
M53.527020,12.930926 
	C53.527020,12.930926 53.449093,13.174362 53.449093,13.174362 
	C53.449093,13.174362 53.593800,13.030245 53.527020,12.930926 
z"/>
<path fill="#EDF2F8" opacity="1.000000" stroke="none" 
	d="
M96.049538,145.123840 
	C96.265663,148.277328 97.139137,151.271057 93.102814,152.324905 
	C93.486115,149.857697 93.832817,147.626022 94.179527,145.394348 
	C93.802078,145.192963 93.424622,144.991577 93.047165,144.790192 
	C90.510498,147.521393 87.996895,150.274658 85.420349,152.967697 
	C84.804741,153.611160 84.036148,154.261520 83.221725,154.484680 
	C82.904068,154.571701 81.785995,153.383453 81.878830,152.962906 
	C82.046211,152.204727 82.773071,151.502075 83.402946,150.925598 
	C86.330612,148.246140 89.423157,145.733444 92.194321,142.904114 
	C93.078156,142.001724 93.311501,140.335602 93.555519,138.967743 
	C93.814117,137.518173 93.731262,136.007675 94.895378,134.533264 
	C95.271896,137.907196 95.648407,141.281113 96.049538,145.123840 
z"/>
<path fill="#E8EEF6" opacity="1.000000" stroke="none" 
	d="
M75.117737,142.095032 
	C78.842400,136.741409 83.497169,136.320435 89.156784,139.084427 
	C79.772842,136.624969 76.251038,144.676575 70.596893,148.904572 
	C70.235741,148.540665 69.874580,148.176758 69.513428,147.812851 
	C71.296173,145.991821 73.078918,144.170776 75.117737,142.095032 
z"/>
<path fill="#EFF3F9" opacity="1.000000" stroke="none" 
	d="
M71.184998,154.066711 
	C74.531349,150.450882 77.571175,147.010529 80.798180,143.755783 
	C81.387161,143.161728 82.739403,143.324432 83.739319,143.137817 
	C83.704659,144.036179 84.041847,145.362732 83.577354,145.766068 
	C79.313812,149.468292 74.911278,153.010437 69.506622,157.457016 
	C70.346481,155.614243 70.644615,154.960083 71.184998,154.066711 
z"/>
<path fill="#DCE6F2" opacity="1.000000" stroke="none" 
	d="
M85.942368,157.743408 
	C88.426834,155.282333 90.680901,153.082535 92.934967,150.882736 
	C93.362892,151.313248 93.790825,151.743759 94.218758,152.174271 
	C91.706566,154.661133 89.194374,157.147995 86.682182,159.634857 
	C86.358780,159.091461 86.035378,158.548080 85.942368,157.743408 
z"/>
<path fill="#D4E1EF" opacity="1.000000" stroke="none" 
	d="
M43.066959,33.861095 
	C49.375336,36.607506 52.026711,30.228498 56.267326,27.815172 
	C56.567383,28.199205 56.867439,28.583239 57.167492,28.967274 
	C55.601810,30.661497 54.036129,32.355724 51.747074,34.832706 
	C53.982937,35.073654 55.596783,35.247570 57.560463,35.218708 
	C57.910301,35.015934 57.859879,35.003971 57.859879,35.003971 
	C56.045815,35.664280 54.157200,37.031483 52.431957,36.849548 
	C47.661240,36.346443 43.226009,36.028458 40.189228,40.750259 
	C40.154560,40.804161 38.815022,40.018837 38.316177,39.143814 
	C40.054153,37.061939 41.560558,35.461517 43.066959,33.861095 
z"/>
<path fill="#D5E1F0" opacity="1.000000" stroke="none" 
	d="
M57.540298,16.573273 
	C59.776432,14.510806 61.758900,12.699422 63.741364,10.888039 
	C64.137238,11.294991 64.533104,11.701941 64.928978,12.108893 
	C62.642521,14.422598 60.359234,16.739447 58.068695,19.049107 
	C55.870159,21.265987 53.664112,23.475418 51.461365,25.688124 
	C50.889511,25.101137 50.317657,24.514151 49.745804,23.927162 
	C52.259415,21.559561 54.773022,19.191957 57.540298,16.573273 
z"/>
<path fill="#DCE6F2" opacity="1.000000" stroke="none" 
	d="
M43.197517,33.539566 
	C41.560558,35.461517 40.054153,37.061939 38.261944,38.836830 
	C37.577644,38.310928 36.670631,37.292976 36.873486,36.968166 
	C37.554119,35.878330 38.559708,34.950146 39.568439,34.113918 
	C43.223381,31.084023 46.245358,27.819721 45.098442,22.477884 
	C44.983814,21.944006 45.700111,21.231724 46.616699,19.486809 
	C47.055779,25.336166 48.436752,30.066547 43.197517,33.539566 
z"/>
<path fill="#E4EBF5" opacity="1.000000" stroke="none" 
	d="
M59.054981,33.439156 
	C61.701351,30.525345 64.295593,27.560694 67.042168,24.744617 
	C67.536263,24.238022 68.657974,24.343567 69.489922,24.166487 
	C69.515732,25.040836 69.925171,26.352407 69.506287,26.719952 
	C66.324158,29.512068 62.979977,32.119495 59.396435,34.483528 
	C59.125431,33.932270 59.108231,33.684464 59.054981,33.439156 
z"/>
<path fill="#D4E1EF" opacity="1.000000" stroke="none" 
	d="
M58.916878,33.680382 
	C59.108231,33.684464 59.125431,33.932270 59.078705,34.367279 
	C58.824692,34.552170 58.598557,34.552357 58.116150,34.778255 
	C57.859879,35.003971 57.910301,35.015934 57.921608,35.032684 
	C58.214870,34.673492 58.496826,34.297550 58.916878,33.680382 
z"/>
<path fill="#DCE6F2" opacity="1.000000" stroke="none" 
	d="
M53.560410,12.980585 
	C53.593800,13.030245 53.449093,13.174362 53.449093,13.174362 
	C53.449093,13.174362 53.527020,12.930926 53.560410,12.980585 
z"/>
</svg>